<?xml version="1.0" encoding="UTF-8"?>
<svg version="1.1" xmlns="http://www.w3.org/2000/svg" width="157" height="54">
<path d="M0 0 C6.27 0 12.54 0 19 0 C19 5.61 19 11.22 19 17 C24.61 17 30.22 17 36 17 C36 11.39 36 5.78 36 0 C41.94 0 47.88 0 54 0 C54 17.49 54 34.98 54 53 C48.06 53 42.12 53 36 53 C36 47.39 36 41.78 36 36 C30.39 36 24.78 36 19 36 C19 41.61 19 47.22 19 53 C12.73 53 6.46 53 0 53 C0 35.51 0 18.02 0 0 Z " fill="#42B5EE" transform="translate(0,1)"/>
<path d="M0 0 C5 0 10 0 15 0 C15.33 2.97 15.66 5.94 16 9 C16 7.35 16 5.7 16 4 C22.75 3 22.75 3 25 3 C25.928125 2.96519531 25.928125 2.96519531 26.875 2.9296875 C27.57625 2.91164063 28.2775 2.89359375 29 2.875 C29.70125 2.85179687 30.4025 2.82859375 31.125 2.8046875 C33 3 33 3 35 5 C35.66 4.34 36.32 3.68 37 3 C40.0625 2.8125 40.0625 2.8125 43 3 C43.495 3.495 43.495 3.495 44 4 C44.33 2.68 44.66 1.36 45 0 C46.32 0 47.64 0 49 0 C49 0.99 49 1.98 49 3 C51.475 3.495 51.475 3.495 54 4 C54.33 2.68 54.66 1.36 55 0 C56.32 0 57.64 0 59 0 C59 5.61 59 11.22 59 17 C57.35 17.33 55.7 17.66 54 18 C53.505 16.515 53.505 16.515 53 15 C51.72125 14.835 50.4425 14.67 49.125 14.5 C48.40570313 14.4071875 47.68640625 14.314375 46.9453125 14.21875 C44.60094323 13.95512615 42.42670603 14.02439549 40.0625 14.125 C37 14 37 14 34 12 C34 12.66 34 13.32 34 14 C32.35 14 30.7 14 29 14 C29 14.99 29 15.98 29 17 C27.68 17 26.36 17 25 17 C24.67 16.01 24.34 15.02 24 14 C22.88625 14 21.7725 14 20.625 14 C15 14 15 14 12.4375 13.4375 C11.633125 13.293125 10.82875 13.14875 10 13 C9.67 13.33 9.34 13.66 9 14 C5.99668982 14.14193337 3.00782866 14.04236378 0 14 C0 9.38 0 4.76 0 0 Z M4 3 C4 3.66 4 4.32 4 5 C4.99 4.67 5.98 4.34 7 4 C6.01 3.67 5.02 3.34 4 3 Z M29 7 C29 8.32 29 9.64 29 11 C29.66 11 30.32 11 31 11 C31 9.68 31 8.36 31 7 C30.34 7 29.68 7 29 7 Z M49 7 C49 8.32 49 9.64 49 11 C49.66 11 50.32 11 51 11 C51 9.68 51 8.36 51 7 C50.34 7 49.68 7 49 7 Z M4 9 C4 9.66 4 10.32 4 11 C4.99 10.67 5.98 10.34 7 10 C6.01 9.67 5.02 9.34 4 9 Z M54 12 C55 14 55 14 55 14 Z " fill="#565656" transform="translate(71,11)"/>
<path d="M0 0 C1.32 0 2.64 0 4 0 C4 1.32 4 2.64 4 4 C4.66 4 5.32 4 6 4 C6.66 2.68 7.32 1.36 8 0 C8.66 0 9.32 0 10 0 C10 1.32 10 2.64 10 4 C11.27875 3.814375 12.5575 3.62875 13.875 3.4375 C17.75 2.875 17.75 2.875 20 4 C20.33 2.68 20.66 1.36 21 0 C22.32 0 23.64 0 25 0 C25 4.95 25 9.9 25 15 C22.02077407 15.02683987 19.04178705 15.04676037 16.0625 15.0625 C14.78729492 15.07506836 14.78729492 15.07506836 13.48632812 15.08789062 C12.67744141 15.09111328 11.86855469 15.09433594 11.03515625 15.09765625 C10.2862915 15.10289307 9.53742676 15.10812988 8.76586914 15.11352539 C7 15 7 15 6 14 C5.95907063 11.66702567 5.95758277 9.33294775 6 7 C5.34 7 4.68 7 4 7 C4 9.64 4 12.28 4 15 C3.278125 14.814375 2.55625 14.62875 1.8125 14.4375 C-1.12826973 13.98004693 -3.14103058 14.26483643 -6 15 C-6 15.99 -6 16.98 -6 18 C-7.32 18 -8.64 18 -10 18 C-10.33 16.68 -10.66 15.36 -11 14 C-11.928125 14.185625 -12.85625 14.37125 -13.8125 14.5625 C-17 15 -17 15 -20 14 C-20.99 14.185625 -21.98 14.37125 -23 14.5625 C-26 15 -26 15 -29 13 C-29.3984375 11.125 -29.3984375 11.125 -29.375 9 C-29.38273437 8.29875 -29.39046875 7.5975 -29.3984375 6.875 C-29 5 -29 5 -26 3 C-23.66327016 3.3086247 -21.33006911 3.64456573 -19 4 C-16.99598989 3.69169075 -14.99488234 3.36270588 -13 3 C-12.01 3.33 -11.02 3.66 -10 4 C-7.9670885 3.86980581 -7.9670885 3.86980581 -5.875 3.5 C-3.956875 3.2525 -3.956875 3.2525 -2 3 C-1.67 3.33 -1.34 3.66 -1 4 C-0.67 2.68 -0.34 1.36 0 0 Z M-25 7 C-24.67 8.32 -24.34 9.64 -24 11 C-24 9.68 -24 8.36 -24 7 C-24.33 7 -24.66 7 -25 7 Z M-12 7 C-11.34 7.66 -10.68 8.32 -10 9 C-10 8.34 -10 7.68 -10 7 C-10.66 7 -11.32 7 -12 7 Z M-6 7 C-6 8.32 -6 9.64 -6 11 C-5.34 11 -4.68 11 -4 11 C-4 9.68 -4 8.36 -4 7 C-4.66 7 -5.32 7 -6 7 Z M10 7 C10.33 8.32 10.66 9.64 11 11 C11.66 9.68 12.32 8.36 13 7 C12.01 7 11.02 7 10 7 Z M-19 9 C-18 11 -18 11 -18 11 Z " fill="#565656" transform="translate(112,29)"/>
<path d="M0 0 C-0.165 1.11375 -0.33 2.2275 -0.5 3.375 C-1.08047717 7.27317293 -1.08047717 7.27317293 -0.4375 11 C0 13 0 13 -1 15 C-4.375 15.75 -4.375 15.75 -8 16 C-8.99 15.34 -9.98 14.68 -11 14 C-10.67 11.03 -10.34 8.06 -10 5 C-10.66 5 -11.32 5 -12 5 C-12 7.31 -12 9.62 -12 12 C-13.32 12 -14.64 12 -16 12 C-16 8.37 -16 4.74 -16 1 C-14.948125 1.020625 -13.89625 1.04125 -12.8125 1.0625 C-8.42666685 0.9906011 -4.38408533 0 0 0 Z " fill="#565656" transform="translate(157,13)"/>
<path d="M0 0 C1.32 0 2.64 0 4 0 C4 1.65 4 3.3 4 5 C4.99 5 5.98 5 7 5 C7 3.35 7 1.7 7 0 C8.32 0 9.64 0 11 0 C11 4.95 11 9.9 11 15 C9.68 15 8.36 15 7 15 C7 13.02 7 11.04 7 9 C6.01 9 5.02 9 4 9 C4 10.98 4 12.96 4 15 C2.68 15 1.36 15 0 15 C0 10.05 0 5.1 0 0 Z " fill="#565656" transform="translate(71,29)"/>
<path d="M0 0 C2.5 0.25 2.5 0.25 4.5 2.25 C4.82752234 4.96454956 4.6308425 7.50230759 4.5 10.25 C3.5 11.25 3.5 11.25 0 11.375 C-3.5 11.25 -3.5 11.25 -4.5 10.25 C-4.77314815 4.51388889 -4.77314815 4.51388889 -4.5 2.25 C-2.5 0.25 -2.5 0.25 0 0 Z " fill="#565656" transform="translate(135.5,13.75)"/>
<path d="M0 0 C2.5625 0.1875 2.5625 0.1875 4.5625 2.1875 C4.75 4.75 4.75 4.75 4.5625 7.1875 C3.5625 8.1875 3.5625 8.1875 0.625 8.375 C-2.4375 8.1875 -2.4375 8.1875 -4.4375 6.1875 C-3.71780303 0.28598485 -3.71780303 0.28598485 0 0 Z " fill="#B0E0F7" transform="translate(9.4375,12.8125)"/>
<path d="M0 0 C0 0.99 0 1.98 0 3 C-0.99 3.495 -0.99 3.495 -2 4 C-1.34 4.33 -0.68 4.66 0 5 C0 5.99 0 6.98 0 8 C-2.97 8 -5.94 8 -9 8 C-9 6.02 -9 4.04 -9 2 C-7.824375 1.7834375 -7.824375 1.7834375 -6.625 1.5625 C-4.19936192 1.04272041 -2.45184765 0 0 0 Z " fill="#DFF2FC" transform="translate(14,43)"/>
<path d="M0 0 C2.97 0 5.94 0 9 0 C8 3 8 3 6 4 C6.99 4.33 7.98 4.66 9 5 C9 5.66 9 6.32 9 7 C6.03 7 3.06 7 0 7 C0 6.01 0 5.02 0 4 C0.66 3.67 1.32 3.34 2 3 C1.34 2.67 0.68 2.34 0 2 C0 1.34 0 0.68 0 0 Z " fill="#F5FBFE" transform="translate(5,5)"/>
<path d="M0 0 C3.875 0.875 3.875 0.875 5 2 C5.125 4.5 5.125 4.5 5 7 C4 8 4 8 1.0625 8.1875 C-2 8 -2 8 -4 6 C-3.625 3.375 -3.625 3.375 -3 1 C-2.34 1 -1.68 1 -1 1 C-1 2.32 -1 3.64 -1 5 C-0.01 4.67 0.98 4.34 2 4 C1.34 4 0.68 4 0 4 C0 2.68 0 1.36 0 0 Z " fill="#EEF8FD" transform="translate(9,26)"/>
<path d="M0 0 C0.66 0 1.32 0 2 0 C2 1.32 2 2.64 2 4 C2.66 4 3.32 4 4 4 C4.33 3.01 4.66 2.02 5 1 C5 1.99 5 2.98 5 4 C5.66 4 6.32 4 7 4 C7 2.68 7 1.36 7 0 C7.66 0 8.32 0 9 0 C9 2.31 9 4.62 9 7 C6.03 7 3.06 7 0 7 C0 4.69 0 2.38 0 0 Z " fill="#E8F6FD" transform="translate(5,35)"/>
<path d="M0 0 C0.33 0 0.66 0 1 0 C1 3.63 1 7.26 1 11 C0.67 10.01 0.34 9.02 0 8 C-0.5775 8.37125 -1.155 8.7425 -1.75 9.125 C-4 10 -4 10 -6.25 9.125 C-6.8275 8.75375 -7.405 8.3825 -8 8 C-5.36 7.67 -2.72 7.34 0 7 C0 4.69 0 2.38 0 0 Z " fill="#5CBFF0" transform="translate(14,35)"/>
<path d="M0 0 C2.31 0 4.62 0 7 0 C5.68 0.33 4.36 0.66 3 1 C3 2.32 3 3.64 3 5 C3.99 4.67 4.98 4.34 6 4 C5.67 4.99 5.34 5.98 5 7 C3.68 6.67 2.36 6.34 1 6 C1.33 4.35 1.66 2.7 2 1 C1.34 0.67 0.68 0.34 0 0 Z " fill="#2EAEEC" transform="translate(6,25)"/>
<path d="M0 0 C1.65 0 3.3 0 5 0 C4.01 0.66 3.02 1.32 2 2 C2 3.32 2 4.64 2 6 C1.01 5.67 0.02 5.34 -1 5 C-0.67 3.35 -0.34 1.7 0 0 Z " fill="#F4FBFE" transform="translate(6,14)"/>
</svg>
