<?xml version="1.0" encoding="UTF-8"?>
<svg version="1.1" xmlns="http://www.w3.org/2000/svg" width="183" height="54">
<path d="M0 0 C5.94 0 11.88 0 18 0 C18 5.94 18 11.88 18 18 C23.61 18 29.22 18 35 18 C35 12.06 35 6.12 35 0 C41.27 0 47.54 0 54 0 C54 17.82 54 35.64 54 54 C47.73 54 41.46 54 35 54 C35 48.06 35 42.12 35 36 C29.39 36 23.78 36 18 36 C18 41.94 18 47.88 18 54 C12.06 54 6.12 54 0 54 C0 36.18 0 18.36 0 0 Z " fill="#45B6EE" transform="translate(1,0)"/>
<path d="M0 0 C1.32 0 2.64 0 4 0 C4.33 1.32 4.66 2.64 5 4 C6.423125 3.690625 6.423125 3.690625 7.875 3.375 C8.90625 3.25125 9.9375 3.1275 11 3 C11.66 3.66 12.32 4.32 13 5 C15.31 4.34 17.62 3.68 20 3 C20 2.01 20 1.02 20 0 C22.97 0 25.94 0 29 0 C29.495 1.98 29.495 1.98 30 4 C31.15628906 3.87431641 31.15628906 3.87431641 32.3359375 3.74609375 C33.84027344 3.59333984 33.84027344 3.59333984 35.375 3.4375 C36.87160156 3.28087891 36.87160156 3.28087891 38.3984375 3.12109375 C41 3 41 3 43 4 C43.33 2.68 43.66 1.36 44 0 C45.32 0 46.64 0 48 0 C48.495 1.485 48.495 1.485 49 3 C52.26374734 4.19670736 55.10820392 4.20065412 58.5 3.4375 C61 3 61 3 64 4 C66.59069971 3.75367118 69.11836247 3.44871022 71.6875 3.0625 C72.38939453 2.96259766 73.09128906 2.86269531 73.81445312 2.75976562 C75.54386527 2.51270675 77.2720627 2.25717148 79 2 C79.02685095 4.47923801 79.04676547 6.9581884 79.0625 9.4375 C79.07087891 10.14455078 79.07925781 10.85160156 79.08789062 11.58007812 C79.09653588 13.38693559 79.05220011 15.19387603 79 17 C78 18 78 18 74.4375 18.0625 C73.303125 18.041875 72.16875 18.02125 71 18 C69.38414648 15.43364441 68.93988242 14.36929371 69.4375 11.3125 C69.7159375 10.1678125 69.7159375 10.1678125 70 9 C69.505 8.505 69.505 8.505 69 8 C68.67 10.31 68.34 12.62 68 15 C67.29875 14.814375 66.5975 14.62875 65.875 14.4375 C62.95383623 13.83452252 62.95383623 13.83452252 59.875 14.5625 C57 15 57 15 54 13 C53.34 13.66 52.68 14.32 52 15 C50.125 15.1953125 50.125 15.1953125 48 15.125 C46.948125 15.09792969 46.948125 15.09792969 45.875 15.0703125 C45.25625 15.04710937 44.6375 15.02390625 44 15 C43.34 15 42.68 15 42 15 C38.33333333 15 34.66666667 15 31 15 C30.505 14.01 30.505 14.01 30 13 C29.67 13.66 29.34 14.32 29 15 C26.03 15 23.06 15 20 15 C19.505 11.535 19.505 11.535 19 8 C18.67 10.31 18.34 12.62 18 15 C17.319375 14.814375 16.63875 14.62875 15.9375 14.4375 C12.42176963 13.91388058 9.4895094 14.4074418 6 15 C5.34 15 4.68 15 4 15 C1.99084303 15.06378276 -0.01831138 15.12771889 -2.02734375 15.1953125 C-4 15 -4 15 -7 13 C-7.66 13.66 -8.32 14.32 -9 15 C-11.5 15.25 -11.5 15.25 -14 15 C-16 13 -16 13 -16.125 9.875 C-16.08375 8.92625 -16.0425 7.9775 -16 7 C-16.66 7 -17.32 7 -18 7 C-18 9.64 -18 12.28 -18 15 C-19.32 15 -20.64 15 -22 15 C-22 11.37 -22 7.74 -22 4 C-16.92335337 3.09748504 -13.0375565 2.9924887 -8 4 C-5.33579484 4 -3.47739354 3.90837763 -1 3 C-0.67 2.01 -0.34 1.02 0 0 Z M34 6 C33.67 7.32 33.34 8.64 33 10 C33.99 10.33 34.98 10.66 36 11 C35.67 9.35 35.34 7.7 35 6 C34.67 6 34.34 6 34 6 Z M-2 7 C-2.33 7.99 -2.66 8.98 -3 10 C-2.01 10.495 -2.01 10.495 -1 11 C-1.33 9.68 -1.66 8.36 -2 7 Z M42 7 C42.66 7.66 43.32 8.32 44 9 C44 8.34 44 7.68 44 7 C43.34 7 42.68 7 42 7 Z M48 7 C48 8.32 48 9.64 48 11 C48.66 11 49.32 11 50 11 C50 9.68 50 8.36 50 7 C49.34 7 48.68 7 48 7 Z " fill="#565656" transform="translate(104,10)"/>
<path d="M0 0 C1.32 0 2.64 0 4 0 C4 1.65 4 3.3 4 5 C5.32 5 6.64 5 8 5 C8 3.35 8 1.7 8 0 C9.32 0 10.64 0 12 0 C12.33 1.32 12.66 2.64 13 4 C13.33 3.67 13.66 3.34 14 3 C15.99952758 2.95653201 18.00039988 2.960008 20 3 C20.99 3 21.98 3 23 3 C28.66666667 3 34.33333333 3 40 3 C40.33 2.01 40.66 1.02 41 0 C42.32 0 43.64 0 45 0 C45 4.62 45 9.24 45 14 C41.7 14 38.4 14 35 14 C35 14.99 35 15.98 35 17 C33.68 17 32.36 17 31 17 C30.67 16.01 30.34 15.02 30 14 C28.906875 14 27.81375 14 26.6875 14 C20.45833333 14 14.22916667 14 8 14 C8 12.02 8 10.04 8 8 C6.68 8 5.36 8 4 8 C4 9.98 4 11.96 4 14 C2.68 14 1.36 14 0 14 C0 9.38 0 4.76 0 0 Z M30 6 C31 8 31 8 31 8 Z M36 6 C35.67 7.32 35.34 8.64 35 10 C35.99 10.495 35.99 10.495 37 11 C37 9.35 37 7.7 37 6 C36.67 6 36.34 6 36 6 Z M16 7 C16 7.99 16 8.98 16 10 C16.66 10 17.32 10 18 10 C18 9.01 18 8.02 18 7 C17.34 7 16.68 7 16 7 Z " fill="#565656" transform="translate(71,29)"/>
<path d="M0 0 C0.99 0 1.98 0 3 0 C3 0.99 3 1.98 3 3 C6.3 3 9.6 3 13 3 C13.33 2.01 13.66 1.02 14 0 C15.32 0 16.64 0 18 0 C18 4.62 18 9.24 18 14 C15.02077407 14.02683987 12.04178705 14.04676037 9.0625 14.0625 C7.78729492 14.07506836 7.78729492 14.07506836 6.48632812 14.08789062 C5.67744141 14.09111328 4.86855469 14.09433594 4.03515625 14.09765625 C3.2862915 14.10289307 2.53742676 14.10812988 1.76586914 14.11352539 C0 14 0 14 -1 13 C-1.28668221 11.38415481 -1.5054948 9.75595569 -1.6875 8.125 C-1.79449219 7.24070312 -1.90148437 6.35640625 -2.01171875 5.4453125 C-2 3 -2 3 0 0 Z M3 6 C3.33 7.65 3.66 9.3 4 11 C4.66 9.68 5.32 8.36 6 7 C5.01 6.67 4.02 6.34 3 6 Z " fill="#565656" transform="translate(119,29)"/>
<path d="M0 0 C3.63 0 7.26 0 11 0 C10.67 2.97 10.34 5.94 10 9 C8.02 9 6.04 9 4 9 C4 10.98 4 12.96 4 15 C2.68 15 1.36 15 0 15 C0 10.05 0 5.1 0 0 Z " fill="#565656" transform="translate(71,10)"/>
<path d="M0 0 C3.0625 -0.25 3.0625 -0.25 6 0 C7 1 7 1 7.125 3.5 C7 6 7 6 6 7 C3.66702567 7.04092937 1.33294775 7.04241723 -1 7 C-1.625 5.1875 -1.625 5.1875 -2 3 C-1.34 2.01 -0.68 1.02 0 0 Z " fill="#C3E7F9" transform="translate(7,13)"/>
<path d="M0 0 C2.05078125 0.03255208 4.1015625 0.06510417 6.15234375 0.09765625 C5.82234375 1.08765625 5.49234375 2.07765625 5.15234375 3.09765625 C4.49234375 3.09765625 3.83234375 3.09765625 3.15234375 3.09765625 C3.15234375 3.75765625 3.15234375 4.41765625 3.15234375 5.09765625 C4.14234375 5.09765625 5.13234375 5.09765625 6.15234375 5.09765625 C6.15234375 5.75765625 6.15234375 6.41765625 6.15234375 7.09765625 C3.18234375 7.09765625 0.21234375 7.09765625 -2.84765625 7.09765625 C-2.89019981 5.09810879 -2.88846408 3.09723989 -2.84765625 1.09765625 C-1.84765625 0.09765625 -1.84765625 0.09765625 0 0 Z " fill="#E6F5FC" transform="translate(7.84765625,42.90234375)"/>
<path d="M0 0 C2.97 0 5.94 0 9 0 C9 0.99 9 1.98 9 3 C8.01 3.495 8.01 3.495 7 4 C7.66 4.33 8.32 4.66 9 5 C9 5.66 9 6.32 9 7 C6.03 7 3.06 7 0 7 C0.33 6.01 0.66 5.02 1 4 C1.66 3.67 2.32 3.34 3 3 C2.01 2.67 1.02 2.34 0 2 C0 1.34 0 0.68 0 0 Z " fill="#F6FBFE" transform="translate(5,4)"/>
<path d="M0 0 C0.66 0 1.32 0 2 0 C2 1.32 2 2.64 2 4 C3.32 4.33 4.64 4.66 6 5 C5.67 4.34 5.34 3.68 5 3 C4.34 3 3.68 3 3 3 C3 2.01 3 1.02 3 0 C4.65 0.33 6.3 0.66 8 1 C8.042721 2.66611905 8.04063832 4.33382885 8 6 C7 7 7 7 3.4375 7.0625 C2.303125 7.041875 1.16875 7.02125 0 7 C-0.38133299 5.0085944 -0.71325582 3.00720923 -1 1 C-0.67 0.67 -0.34 0.34 0 0 Z " fill="#EFF9FD" transform="translate(6,26)"/>
<path d="M0 0 C0.66 0 1.32 0 2 0 C2 2.31 2 4.62 2 7 C-0.97 7 -3.94 7 -7 7 C-7 5.02 -7 3.04 -7 1 C-6.34 1 -5.68 1 -5 1 C-5 1.99 -5 2.98 -5 4 C-4.34 4 -3.68 4 -3 4 C-2.67 3.34 -2.34 2.68 -2 2 C-2 2.66 -2 3.32 -2 4 C-1.34 4 -0.68 4 0 4 C0 2.68 0 1.36 0 0 Z " fill="#EEF8FD" transform="translate(12,34)"/>
<path d="M0 0 C0 1.65 0 3.3 0 5 C-1.65 5 -3.3 5 -5 5 C-5 4.01 -5 3.02 -5 2 C-5.66 1.67 -6.32 1.34 -7 1 C-4.53721199 -0.231394 -2.7204945 -0.07159196 0 0 Z " fill="#71C8F2" transform="translate(12,33)"/>
</svg>
