<?xml version="1.0" encoding="UTF-8"?>
<svg version="1.1" xmlns="http://www.w3.org/2000/svg" width="140" height="54">
<path d="M0 0 C6.27 0 12.54 0 19 0 C19 5.61 19 11.22 19 17 C24.61 17 30.22 17 36 17 C36 11.39 36 5.78 36 0 C41.94 0 47.88 0 54 0 C54 17.49 54 34.98 54 53 C48.06 53 42.12 53 36 53 C36 47.39 36 41.78 36 36 C30.39 36 24.78 36 19 36 C19 41.61 19 47.22 19 53 C12.73 53 6.46 53 0 53 C0 35.51 0 18.02 0 0 Z " fill="#42B5ED" transform="translate(1,1)"/>
<path d="M0 0 C1.32 0 2.64 0 4 0 C4.495 0.99 4.495 0.99 5 2 C6.32 1.34 7.64 0.68 9 0 C9 1.32 9 2.64 9 4 C9.62648437 3.91621094 10.25296875 3.83242188 10.8984375 3.74609375 C11.71570313 3.64425781 12.53296875 3.54242188 13.375 3.4375 C14.18710938 3.33308594 14.99921875 3.22867188 15.8359375 3.12109375 C18 3 18 3 20 4 C20.33 2.68 20.66 1.36 21 0 C22.32 0 23.64 0 25 0 C25 4.62 25 9.24 25 14 C22.793125 14.185625 20.58625 14.37125 18.3125 14.5625 C17.07113281 14.66691406 15.82976562 14.77132812 14.55078125 14.87890625 C11.42279516 14.98558124 8.97847601 14.92283023 6 14 C5.505 13.01 5.505 13.01 5 12 C4.67 12.66 4.34 13.32 4 14 C1.71484375 14.4140625 1.71484375 14.4140625 -1.0625 14.625 C-1.98160156 14.69976562 -2.90070313 14.77453125 -3.84765625 14.8515625 C-4.91306641 14.92503906 -4.91306641 14.92503906 -6 15 C-6 15.99 -6 16.98 -6 18 C-7.32 18 -8.64 18 -10 18 C-10.33 16.68 -10.66 15.36 -11 14 C-11.9075 14.185625 -12.815 14.37125 -13.75 14.5625 C-16.72667662 14.96320647 -18.21103634 14.8263596 -21 14 C-21.33 14.33 -21.66 14.66 -22 15 C-24.4375 15.1875 -24.4375 15.1875 -27 15 C-29 13 -29 13 -29.265625 11.125 C-29.26046875 10.42375 -29.2553125 9.7225 -29.25 9 C-29.25515625 8.29875 -29.2603125 7.5975 -29.265625 6.875 C-29 5 -29 5 -27 3 C-24.5 2.75 -24.5 2.75 -22 3 C-21.34 3.66 -20.68 4.32 -20 5 C-19.01 4.34 -18.02 3.68 -17 3 C-14.66487041 3.32050798 -12.33177975 3.65596692 -10 4 C-8.53726191 3.87788865 -7.0775477 3.71123225 -5.625 3.5 C-4.42875 3.335 -3.2325 3.17 -2 3 C-1.67 3.33 -1.34 3.66 -1 4 C-0.67 2.68 -0.34 1.36 0 0 Z M-25 7 C-24.67 8.32 -24.34 9.64 -24 11 C-24 9.68 -24 8.36 -24 7 C-24.33 7 -24.66 7 -25 7 Z M-13 7 C-11.515 7.99 -11.515 7.99 -10 9 C-10 8.34 -10 7.68 -10 7 C-10.99 7 -11.98 7 -13 7 Z M-6 7 C-6 8.32 -6 9.64 -6 11 C-5.34 11 -4.68 11 -4 11 C-4.33 9.68 -4.66 8.36 -5 7 C-5.33 7 -5.66 7 -6 7 Z M9 7 C9 8.32 9 9.64 9 11 C9.66 11 10.32 11 11 11 C11.66 9.68 12.32 8.36 13 7 C11.68 7 10.36 7 9 7 Z " fill="#565656" transform="translate(113,29)"/>
<path d="M0 0 C0.66 0 1.32 0 2 0 C2 0.99 2 1.98 2 3 C2.62648438 3 3.25296875 3 3.8984375 3 C6.93229167 3 9.96614583 3 13 3 C13.66 2.01 14.32 1.02 15 0 C17.375 -0.1875 17.375 -0.1875 20 0 C21.32 0 22.64 0 24 0 C24 0.99 24 1.98 24 3 C26.22926402 3 28.45883857 2.98932934 30.6875 2.9375 C33 3 33 3 34 4 C34.07205511 5.68608966 34.08386068 7.37500659 34.0625 9.0625 C34.05347656 9.98160156 34.04445312 10.90070312 34.03515625 11.84765625 C34.02355469 12.55792969 34.01195312 13.26820312 34 14 C31.85423363 14.02685938 29.70837355 14.04633088 27.5625 14.0625 C26.36753906 14.07410156 25.17257813 14.08570313 23.94140625 14.09765625 C21 14 21 14 20 13 C19.95919217 11.00041636 19.95745644 8.99954746 20 7 C19.34 7 18.68 7 18 7 C18 9.31 18 11.62 18 14 C17.195625 13.814375 16.39125 13.62875 15.5625 13.4375 C14.2940625 13.2209375 14.2940625 13.2209375 13 13 C12.67 13.33 12.34 13.66 12 14 C9.8553058 14.07294878 7.70833021 14.08365276 5.5625 14.0625 C4.38816406 14.05347656 3.21382812 14.04445313 2.00390625 14.03515625 C1.01261719 14.02355469 0.02132812 14.01195312 -1 14 C-1.66 14 -2.32 14 -3 14 C-6 14 -9 14 -12 14 C-12 10.37 -12 6.74 -12 3 C-9.75390625 3.09765625 -7.5078125 3.1953125 -5.26171875 3.29296875 C-2.49291259 2.9343151 -1.81639042 2.02945675 0 0 Z M2 7 C3 11 3 11 3 11 Z M8 7 C8 8.32 8 9.64 8 11 C8.33 9.68 8.66 8.36 9 7 C8.67 7 8.34 7 8 7 Z M24 7 C24 8.32 24 9.64 24 11 C24.66 11 25.32 11 26 11 C26 9.68 26 8.36 26 7 C25.34 7 24.68 7 24 7 Z " fill="#565656" transform="translate(106,11)"/>
<path d="M0 0 C3.5 0.25 3.5 0.25 5.5 2.25 C5.83 3.24 6.16 4.23 6.5 5.25 C7.16 4.59 7.82 3.93 8.5 3.25 C11 3 11 3 13.5 3.25 C15.5 5.25 15.5 5.25 15.73046875 7.16015625 C15.61111111 13.13888889 15.61111111 13.13888889 14.5 14.25 C11.0625 14.4375 11.0625 14.4375 7.5 14.25 C6.84 13.59 6.18 12.93 5.5 12.25 C4.84 12.91 4.18 13.57 3.5 14.25 C-2.61111111 14.91666667 -2.61111111 14.91666667 -5.5 12.75 C-7.03520468 8.91198831 -6.34646659 6.28699449 -5.5 2.25 C-3.5 0.25 -3.5 0.25 0 0 Z M-1.5 4.25 C-2.27242269 6.08700789 -2.27242269 6.08700789 -2.5 8.25 C-1.14555699 10.02190909 -1.14555699 10.02190909 0.5 11.25 C0.83 10.59 1.16 9.93 1.5 9.25 C0.84 9.25 0.18 9.25 -0.5 9.25 C-0.5 8.26 -0.5 7.27 -0.5 6.25 C0.16 6.25 0.82 6.25 1.5 6.25 C1.5 5.59 1.5 4.93 1.5 4.25 C0.51 4.25 -0.48 4.25 -1.5 4.25 Z " fill="#565656" transform="translate(77.5,10.75)"/>
<path d="M0 0 C1.32 0 2.64 0 4 0 C4 1.65 4 3.3 4 5 C4.99 5 5.98 5 7 5 C7 3.35 7 1.7 7 0 C8.32 0 9.64 0 11 0 C11 4.95 11 9.9 11 15 C9.68 15 8.36 15 7 15 C7 13.02 7 11.04 7 9 C6.01 9 5.02 9 4 9 C4 10.98 4 12.96 4 15 C2.68 15 1.36 15 0 15 C0 10.05 0 5.1 0 0 Z " fill="#565656" transform="translate(72,29)"/>
<path d="M0 0 C2.05078125 0.03255208 4.1015625 0.06510417 6.15234375 0.09765625 C6.15234375 1.08765625 6.15234375 2.07765625 6.15234375 3.09765625 C5.16234375 3.59265625 5.16234375 3.59265625 4.15234375 4.09765625 C4.81234375 4.42765625 5.47234375 4.75765625 6.15234375 5.09765625 C6.15234375 6.08765625 6.15234375 7.07765625 6.15234375 8.09765625 C3.18234375 8.09765625 0.21234375 8.09765625 -2.84765625 8.09765625 C-2.89007348 5.7647085 -2.88858562 3.43063058 -2.84765625 1.09765625 C-1.84765625 0.09765625 -1.84765625 0.09765625 0 0 Z " fill="#D4EEFB" transform="translate(8.84765625,42.90234375)"/>
<path d="M0 0 C2.5625 0.1875 2.5625 0.1875 4.5625 2.1875 C4.00694444 6.74305556 4.00694444 6.74305556 2.5625 8.1875 C0.125 8.375 0.125 8.375 -2.4375 8.1875 C-3.0975 7.5275 -3.7575 6.8675 -4.4375 6.1875 C-3.71780303 0.28598485 -3.71780303 0.28598485 0 0 Z " fill="#C5E8F9" transform="translate(10.4375,12.8125)"/>
<path d="M0 0 C2.97 0 5.94 0 9 0 C8 3 8 3 6 4 C6.99 4.33 7.98 4.66 9 5 C9 5.66 9 6.32 9 7 C6.03 7 3.06 7 0 7 C0 6.01 0 5.02 0 4 C0.66 3.67 1.32 3.34 2 3 C1.34 2.67 0.68 2.34 0 2 C0 1.34 0 0.68 0 0 Z " fill="#F9FCFE" transform="translate(6,5)"/>
<path d="M0 0 C2.475 0.495 2.475 0.495 5 1 C5 1.99 5 2.98 5 4 C5.66 4 6.32 4 7 4 C7 2.68 7 1.36 7 0 C7.66 0 8.32 0 9 0 C9 2.31 9 4.62 9 7 C6.03 7 3.06 7 0 7 C0 4.69 0 2.38 0 0 Z " fill="#EFF8FD" transform="translate(6,35)"/>
<path d="M0 0 C3.875 0.875 3.875 0.875 5 2 C5.125 4.5 5.125 4.5 5 7 C4 8 4 8 0.4375 8.0625 C-0.696875 8.041875 -1.83125 8.02125 -3 8 C-3.33 6.02 -3.66 4.04 -4 2 C-3.01 1.67 -2.02 1.34 -1 1 C-1 2.32 -1 3.64 -1 5 C-0.01 4.67 0.98 4.34 2 4 C1.34 4 0.68 4 0 4 C0 2.68 0 1.36 0 0 Z " fill="#ECF7FD" transform="translate(10,26)"/>
<path d="M0 0 C0.33 0.66 0.66 1.32 1 2 C1.99 1.67 2.98 1.34 4 1 C4 1.66 4 2.32 4 3 C5.32 3 6.64 3 8 3 C8 3.66 8 4.32 8 5 C5.03 5 2.06 5 -1 5 C-0.67 3.35 -0.34 1.7 0 0 Z " fill="#EAF6FD" transform="translate(7,46)"/>
<path d="M0 0 C1.98 0.495 1.98 0.495 4 1 C4 2.32 4 3.64 4 5 C3.34 5 2.68 5 2 5 C2 4.01 2 3.02 2 2 C1.34 2 0.68 2 0 2 C-0.33 2.99 -0.66 3.98 -1 5 C-0.67 3.35 -0.34 1.7 0 0 Z " fill="#5FC1F0" transform="translate(9,34)"/>
</svg>
