<?xml version="1.0" encoding="UTF-8"?>
<svg version="1.1" xmlns="http://www.w3.org/2000/svg" width="136" height="54">
<path d="M0 0 C6.27 0 12.54 0 19 0 C19 5.61 19 11.22 19 17 C24.61 17 30.22 17 36 17 C36 11.39 36 5.78 36 0 C41.94 0 47.88 0 54 0 C54 17.49 54 34.98 54 53 C48.06 53 42.12 53 36 53 C36 47.39 36 41.78 36 36 C30.39 36 24.78 36 19 36 C19 41.61 19 47.22 19 53 C12.73 53 6.46 53 0 53 C0 35.51 0 18.02 0 0 Z " fill="#42B5ED" transform="translate(0,1)"/>
<path d="M0 0 C1.32 0 2.64 0 4 0 C4 1.32 4 2.64 4 4 C4.66 4 5.32 4 6 4 C6 3.01 6 2.02 6 1 C7.32 0.67 8.64 0.34 10 0 C10.66 1.32 11.32 2.64 12 4 C12.94875 3.814375 13.8975 3.62875 14.875 3.4375 C18 3 18 3 20 4 C20.33 2.68 20.66 1.36 21 0 C21.99 0 22.98 0 24 0 C24 4.62 24 9.24 24 14 C10.74107143 15.20535714 10.74107143 15.20535714 6 14 C6 11.69 6 9.38 6 7 C5.34 7 4.68 7 4 7 C4 9.31 4 11.62 4 14 C0.7 14.33 -2.6 14.66 -6 15 C-6 15.99 -6 16.98 -6 18 C-7.32 18 -8.64 18 -10 18 C-10.33 16.68 -10.66 15.36 -11 14 C-11.9075 14.185625 -12.815 14.37125 -13.75 14.5625 C-16.72667662 14.96320647 -18.21103634 14.8263596 -21 14 C-21.33 14.33 -21.66 14.66 -22 15 C-24.4375 15.1875 -24.4375 15.1875 -27 15 C-29 13 -29 13 -29.265625 11.125 C-29.26046875 10.42375 -29.2553125 9.7225 -29.25 9 C-29.25515625 8.29875 -29.2603125 7.5975 -29.265625 6.875 C-29 5 -29 5 -27 3 C-24.5 2.75 -24.5 2.75 -22 3 C-21.34 3.66 -20.68 4.32 -20 5 C-19.01 4.34 -18.02 3.68 -17 3 C-14.66487041 3.32050798 -12.33177975 3.65596692 -10 4 C-8.53726191 3.87788865 -7.0775477 3.71123225 -5.625 3.5 C-4.42875 3.335 -3.2325 3.17 -2 3 C-1.67 3.33 -1.34 3.66 -1 4 C-0.67 2.68 -0.34 1.36 0 0 Z M-25 7 C-24.67 8.32 -24.34 9.64 -24 11 C-24 9.68 -24 8.36 -24 7 C-24.33 7 -24.66 7 -25 7 Z M-12 7 C-11.34 7.66 -10.68 8.32 -10 9 C-10 8.34 -10 7.68 -10 7 C-10.66 7 -11.32 7 -12 7 Z M-6 7 C-6 8.32 -6 9.64 -6 11 C-5.34 11 -4.68 11 -4 11 C-4 9.68 -4 8.36 -4 7 C-4.66 7 -5.32 7 -6 7 Z M10 7 C10.33 8.32 10.66 9.64 11 11 C11.66 9.68 12.32 8.36 13 7 C12.01 7 11.02 7 10 7 Z " fill="#565656" transform="translate(112,29)"/>
<path d="M0 0 C0.9796875 0.02320313 1.959375 0.04640625 2.96875 0.0703125 C3.9484375 0.08835937 4.928125 0.10640625 5.9375 0.125 C6.7728125 0.14820313 7.608125 0.17140625 8.46875 0.1953125 C9.12875 0.1953125 9.78875 0.1953125 10.46875 0.1953125 C11.78875 0.1953125 13.10875 0.1953125 14.46875 0.1953125 C13.47875 3.8253125 12.48875 7.4553125 11.46875 11.1953125 C9.81875 11.1953125 8.16875 11.1953125 6.46875 11.1953125 C6.13875 10.2053125 5.80875 9.2153125 5.46875 8.1953125 C4.47875 9.6803125 4.47875 9.6803125 3.46875 11.1953125 C-0.09375 11.4453125 -0.09375 11.4453125 -3.53125 11.1953125 C-5.42613952 9.30042298 -4.71144112 6.62392104 -4.76171875 4.10546875 C-4.37483298 0.89890706 -3.08900024 0.23834878 0 0 Z " fill="#565656" transform="translate(108.53125,13.8046875)"/>
<path d="M0 0 C1.32 0 2.64 0 4 0 C4 1.65 4 3.3 4 5 C4.99 5 5.98 5 7 5 C7 3.35 7 1.7 7 0 C8.32 0 9.64 0 11 0 C11 4.95 11 9.9 11 15 C9.68 15 8.36 15 7 15 C7 13.02 7 11.04 7 9 C6.01 9 5.02 9 4 9 C4 10.98 4 12.96 4 15 C2.68 15 1.36 15 0 15 C0 10.05 0 5.1 0 0 Z " fill="#565656" transform="translate(71,29)"/>
<path d="M0 0 C1.32 0 2.64 0 4 0 C4 1.65 4 3.3 4 5 C4.99 5 5.98 5 7 5 C7 3.35 7 1.7 7 0 C8.32 0 9.64 0 11 0 C11 4.62 11 9.24 11 14 C9.68 14 8.36 14 7 14 C7 12.35 7 10.7 7 9 C6.01 9 5.02 9 4 9 C4 10.65 4 12.3 4 14 C2.68 14 1.36 14 0 14 C0 9.38 0 4.76 0 0 Z " fill="#565656" transform="translate(71,11)"/>
<path d="M0 0 C1.32 0 2.64 0 4 0 C4 4.62 4 9.24 4 14 C2.68 14 1.36 14 0 14 C0 11.69 0 9.38 0 7 C-0.66 7 -1.32 7 -2 7 C-2 9.31 -2 11.62 -2 14 C-3.32 14 -4.64 14 -6 14 C-6 10.37 -6 6.74 -6 3 C-4.02 3 -2.04 3 0 3 C0 2.01 0 1.02 0 0 Z " fill="#565656" transform="translate(99,11)"/>
<path d="M0 0 C3.625 0.375 3.625 0.375 7 1 C7.02689216 2.47906892 7.04634621 3.95827483 7.0625 5.4375 C7.07410156 6.26121094 7.08570312 7.08492187 7.09765625 7.93359375 C7 10 7 10 6 11 C2.5 11.125 2.5 11.125 -1 11 C-2.89488952 9.10511048 -2.18019112 6.42860854 -2.23046875 3.91015625 C-2 2 -2 2 0 0 Z " fill="#565656" transform="translate(85,14)"/>
<path d="M0 0 C2.05078125 0.03255208 4.1015625 0.06510417 6.15234375 0.09765625 C5.96671875 0.67515625 5.78109375 1.25265625 5.58984375 1.84765625 C4.92852685 4.40158982 4.92852685 4.40158982 6.15234375 8.09765625 C3.18234375 8.09765625 0.21234375 8.09765625 -2.84765625 8.09765625 C-2.89007348 5.7647085 -2.88858562 3.43063058 -2.84765625 1.09765625 C-1.84765625 0.09765625 -1.84765625 0.09765625 0 0 Z " fill="#D3EDFB" transform="translate(7.84765625,42.90234375)"/>
<path d="M0 0 C2.5625 0.1875 2.5625 0.1875 4.5625 2.1875 C4.75 4.75 4.75 4.75 4.5625 7.1875 C3.5625 8.1875 3.5625 8.1875 0.625 8.375 C-2.4375 8.1875 -2.4375 8.1875 -4.4375 6.1875 C-3.71780303 0.28598485 -3.71780303 0.28598485 0 0 Z " fill="#C4E8F9" transform="translate(9.4375,12.8125)"/>
<path d="M0 0 C2.475 0.495 2.475 0.495 5 1 C5 1.99 5 2.98 5 4 C5.66 4 6.32 4 7 4 C7 2.68 7 1.36 7 0 C7.66 0 8.32 0 9 0 C9 2.31 9 4.62 9 7 C6.03 7 3.06 7 0 7 C0 4.69 0 2.38 0 0 Z " fill="#EFF8FD" transform="translate(5,35)"/>
<path d="M0 0 C2.97 0 5.94 0 9 0 C8 3 8 3 6 4 C6.99 4.33 7.98 4.66 9 5 C9 5.66 9 6.32 9 7 C6.03 7 3.06 7 0 7 C0 6.01 0 5.02 0 4 C0.66 3.67 1.32 3.34 2 3 C1.34 2.67 0.68 2.34 0 2 C0 1.34 0 0.68 0 0 Z " fill="#FCFDFE" transform="translate(5,5)"/>
<path d="M0 0 C3.875 0.875 3.875 0.875 5 2 C5.125 4.5 5.125 4.5 5 7 C4 8 4 8 1.0625 8.1875 C-2 8 -2 8 -4 6 C-3.625 3.375 -3.625 3.375 -3 1 C-2.34 1 -1.68 1 -1 1 C-1 2.32 -1 3.64 -1 5 C-0.01 4.67 0.98 4.34 2 4 C1.34 4 0.68 4 0 4 C0 2.68 0 1.36 0 0 Z " fill="#EFF8FD" transform="translate(9,26)"/>
<path d="M0 0 C0.33 0.66 0.66 1.32 1 2 C1.99 1.67 2.98 1.34 4 1 C4 1.66 4 2.32 4 3 C5.32 3 6.64 3 8 3 C8 3.66 8 4.32 8 5 C5.03 5 2.06 5 -1 5 C-0.67 3.35 -0.34 1.7 0 0 Z " fill="#EAF7FD" transform="translate(6,46)"/>
<path d="M0 0 C2.31 0 4.62 0 7 0 C5.68 0.33 4.36 0.66 3 1 C3 2.32 3 3.64 3 5 C3.99 4.67 4.98 4.34 6 4 C5.67 4.99 5.34 5.98 5 7 C3.68 6.67 2.36 6.34 1 6 C1.33 4.35 1.66 2.7 2 1 C1.34 0.67 0.68 0.34 0 0 Z " fill="#30AEEC" transform="translate(6,25)"/>
</svg>
