<?xml version="1.0" encoding="UTF-8"?>
<svg version="1.1" xmlns="http://www.w3.org/2000/svg" width="141" height="54">
<path d="M0 0 C6.27 0 12.54 0 19 0 C19 5.61 19 11.22 19 17 C24.61 17 30.22 17 36 17 C36 11.39 36 5.78 36 0 C41.94 0 47.88 0 54 0 C54 17.49 54 34.98 54 53 C48.06 53 42.12 53 36 53 C36 47.39 36 41.78 36 36 C30.39 36 24.78 36 19 36 C19 41.61 19 47.22 19 53 C12.73 53 6.46 53 0 53 C0 35.51 0 18.02 0 0 Z " fill="#42B5EE" transform="translate(0,1)"/>
<path d="M0 0 C1.32 0 2.64 0 4 0 C4 1.65 4 3.3 4 5 C4.99 5 5.98 5 7 5 C7 3.35 7 1.7 7 0 C8.32 0 9.64 0 11 0 C11 0.99 11 1.98 11 3 C14.63 3 18.26 3 22 3 C22 2.01 22 1.02 22 0 C23.32 0 24.64 0 26 0 C26.33 1.32 26.66 2.64 27 4 C28.65 3.67 30.3 3.34 32 3 C32 2.01 32 1.02 32 0 C33.32 0 34.64 0 36 0 C36.495 1.98 36.495 1.98 37 4 C37.33 3.67 37.66 3.34 38 3 C39.75724813 2.91269149 41.51795275 2.89301354 43.27734375 2.90234375 C44.34791016 2.90556641 45.41847656 2.90878906 46.52148438 2.91210938 C47.64876953 2.92048828 48.77605469 2.92886719 49.9375 2.9375 C51.62262695 2.94426758 51.62262695 2.94426758 53.34179688 2.95117188 C56.22790782 2.96332027 59.1139282 2.98102997 62 3 C63.52097602 3 65.04197618 2.97458595 66.5625 2.9375 C69 3 69 3 70 4 C70.07205511 5.68608966 70.08386068 7.37500659 70.0625 9.0625 C70.05347656 9.98160156 70.04445313 10.90070312 70.03515625 11.84765625 C70.02355469 12.55792969 70.01195312 13.26820312 70 14 C67.66705225 14.04241723 65.33297433 14.04092937 63 14 C62 13 62 13 61.9375 9.9375 C61.958125 8.968125 61.97875 7.99875 62 7 C61.34 7 60.68 7 60 7 C60 9.31 60 11.62 60 14 C58.68 14 57.36 14 56 14 C55.505 11.03 55.505 11.03 55 8 C54.34 9.98 53.68 11.96 53 14 C51.35 14 49.7 14 48 14 C47.505 12.515 47.505 12.515 47 11 C46.34 11.99 45.68 12.98 45 14 C41.5 14.1875 41.5 14.1875 38 14 C37.34 14 36.68 14 36 14 C31.33333333 14 26.66666667 14 22 14 C21.67 12.02 21.34 10.04 21 8 C20.34 9.98 19.68 11.96 19 14 C17.35 14 15.7 14 14 14 C13.34 12.02 12.68 10.04 12 8 C11.67 9.98 11.34 11.96 11 14 C9.68 14 8.36 14 7 14 C7 12.35 7 10.7 7 9 C6.01 9 5.02 9 4 9 C4 10.65 4 12.3 4 14 C2.68 14 1.36 14 0 14 C0 9.38 0 4.76 0 0 Z M30 7 C30 8.32 30 9.64 30 11 C30.66 11 31.32 11 32 11 C32 9.68 32 8.36 32 7 C31.34 7 30.68 7 30 7 Z M40 7 C40.33 8.32 40.66 9.64 41 11 C41.33 9.68 41.66 8.36 42 7 C41.34 7 40.68 7 40 7 Z " fill="#565656" transform="translate(71,11)"/>
<path d="M0 0 C1.32 0 2.64 0 4 0 C4 1.32 4 2.64 4 4 C4.66 4 5.32 4 6 4 C6.66 2.68 7.32 1.36 8 0 C8.66 0 9.32 0 10 0 C10 1.32 10 2.64 10 4 C11.27875 3.814375 12.5575 3.62875 13.875 3.4375 C17.75 2.875 17.75 2.875 20 4 C20.33 2.68 20.66 1.36 21 0 C22.32 0 23.64 0 25 0 C25 4.62 25 9.24 25 14 C22.793125 14.185625 20.58625 14.37125 18.3125 14.5625 C17.07113281 14.66691406 15.82976562 14.77132812 14.55078125 14.87890625 C11.44164467 14.98493841 8.99189028 14.77228525 6 14 C6 11.69 6 9.38 6 7 C5.34 7 4.68 7 4 7 C4 9.31 4 11.62 4 14 C2.9171875 13.9690625 2.9171875 13.9690625 1.8125 13.9375 C-0.91925138 13.99820559 -3.34256091 14.39258535 -6 15 C-6 15.99 -6 16.98 -6 18 C-7.32 18 -8.64 18 -10 18 C-10.33 16.68 -10.66 15.36 -11 14 C-11.928125 14.185625 -12.85625 14.37125 -13.8125 14.5625 C-17 15 -17 15 -20 14 C-20.99 14.185625 -21.98 14.37125 -23 14.5625 C-26 15 -26 15 -29 13 C-29.3984375 11.125 -29.3984375 11.125 -29.375 9 C-29.38273437 8.29875 -29.39046875 7.5975 -29.3984375 6.875 C-29 5 -29 5 -26 3 C-23.66327016 3.3086247 -21.33006911 3.64456573 -19 4 C-16.99598989 3.69169075 -14.99488234 3.36270588 -13 3 C-12.01 3.33 -11.02 3.66 -10 4 C-7.9670885 3.86980581 -7.9670885 3.86980581 -5.875 3.5 C-3.956875 3.2525 -3.956875 3.2525 -2 3 C-1.67 3.33 -1.34 3.66 -1 4 C-0.67 2.68 -0.34 1.36 0 0 Z M-25 7 C-24.67 8.32 -24.34 9.64 -24 11 C-24 9.68 -24 8.36 -24 7 C-24.33 7 -24.66 7 -25 7 Z M-12 7 C-11.34 7.66 -10.68 8.32 -10 9 C-10 8.34 -10 7.68 -10 7 C-10.66 7 -11.32 7 -12 7 Z M-6 7 C-6 8.32 -6 9.64 -6 11 C-5.34 11 -4.68 11 -4 11 C-4 9.68 -4 8.36 -4 7 C-4.66 7 -5.32 7 -6 7 Z M10 7 C10.33 8.32 10.66 9.64 11 11 C11.33 10.01 11.66 9.02 12 8 C12.66 7.67 13.32 7.34 14 7 C12.68 7 11.36 7 10 7 Z M-19 9 C-18 11 -18 11 -18 11 Z " fill="#565656" transform="translate(112,29)"/>
<path d="M0 0 C1.32 0 2.64 0 4 0 C4 1.65 4 3.3 4 5 C4.99 5 5.98 5 7 5 C7 3.35 7 1.7 7 0 C8.32 0 9.64 0 11 0 C11 4.95 11 9.9 11 15 C9.68 15 8.36 15 7 15 C7 13.02 7 11.04 7 9 C6.01 9 5.02 9 4 9 C4 10.98 4 12.96 4 15 C2.68 15 1.36 15 0 15 C0 10.05 0 5.1 0 0 Z " fill="#565656" transform="translate(71,29)"/>
<path d="M0 0 C2.5625 0.1875 2.5625 0.1875 4.5625 2.1875 C4.75 4.75 4.75 4.75 4.5625 7.1875 C3.5625 8.1875 3.5625 8.1875 0.625 8.375 C-2.4375 8.1875 -2.4375 8.1875 -4.4375 6.1875 C-3.71780303 0.28598485 -3.71780303 0.28598485 0 0 Z " fill="#C4E8F9" transform="translate(9.4375,12.8125)"/>
<path d="M0 0 C0.33 0.99 0.66 1.98 1 3 C0.01 3.495 0.01 3.495 -1 4 C-0.34 4.33 0.32 4.66 1 5 C1 5.99 1 6.98 1 8 C-1.97 8 -4.94 8 -8 8 C-8 5.69 -8 3.38 -8 1 C-7.05125 1.020625 -6.1025 1.04125 -5.125 1.0625 C-2.09333717 1.22551826 -2.09333717 1.22551826 0 0 Z " fill="#DEF2FC" transform="translate(13,43)"/>
<path d="M0 0 C2.97 0 5.94 0 9 0 C8 3 8 3 6 4 C6.99 4.33 7.98 4.66 9 5 C9 5.66 9 6.32 9 7 C6.03 7 3.06 7 0 7 C0 6.01 0 5.02 0 4 C0.66 3.67 1.32 3.34 2 3 C1.34 2.67 0.68 2.34 0 2 C0 1.34 0 0.68 0 0 Z " fill="#F5FBFE" transform="translate(5,5)"/>
<path d="M0 0 C3.875 0.875 3.875 0.875 5 2 C5.125 4.5 5.125 4.5 5 7 C4 8 4 8 1.0625 8.1875 C-2 8 -2 8 -4 6 C-3.625 3.375 -3.625 3.375 -3 1 C-2.34 1 -1.68 1 -1 1 C-1 2.32 -1 3.64 -1 5 C-0.01 4.67 0.98 4.34 2 4 C1.34 4 0.68 4 0 4 C0 2.68 0 1.36 0 0 Z " fill="#EFF8FD" transform="translate(9,26)"/>
<path d="M0 0 C0.66 0 1.32 0 2 0 C2 1.32 2 2.64 2 4 C2.66 4 3.32 4 4 4 C4.33 3.01 4.66 2.02 5 1 C5 1.99 5 2.98 5 4 C5.66 4 6.32 4 7 4 C7 2.68 7 1.36 7 0 C7.66 0 8.32 0 9 0 C9 2.31 9 4.62 9 7 C6.03 7 3.06 7 0 7 C0 4.69 0 2.38 0 0 Z " fill="#E8F6FD" transform="translate(5,35)"/>
<path d="M0 0 C2.31 0 4.62 0 7 0 C5.68 0.33 4.36 0.66 3 1 C3 2.32 3 3.64 3 5 C3.99 4.67 4.98 4.34 6 4 C5.67 4.99 5.34 5.98 5 7 C3.68 6.67 2.36 6.34 1 6 C1.33 4.35 1.66 2.7 2 1 C1.34 0.67 0.68 0.34 0 0 Z " fill="#30AEEC" transform="translate(6,25)"/>
</svg>
