<?xml version="1.0" encoding="UTF-8"?>
<svg version="1.1" xmlns="http://www.w3.org/2000/svg" width="187" height="54">
<path d="M0 0 C6.27 0 12.54 0 19 0 C19 5.94 19 11.88 19 18 C24.61 18 30.22 18 36 18 C36 12.06 36 6.12 36 0 C41.94 0 47.88 0 54 0 C54 17.82 54 35.64 54 54 C48.06 54 42.12 54 36 54 C36 48.06 36 42.12 36 36 C30.39 36 24.78 36 19 36 C19 41.94 19 47.88 19 54 C12.73 54 6.46 54 0 54 C0 36.18 0 18.36 0 0 Z " fill="#43B5EE" transform="translate(0,0)"/>
<path d="M0 0 C5.33333333 0 10.66666667 0 16 0 C16.33 0.99 16.66 1.98 17 3 C20.3 2.34 23.6 1.68 27 1 C27 1.66 27 2.32 27 3 C28.175625 2.7215625 28.175625 2.7215625 29.375 2.4375 C32 2 32 2 34 3 C34.33 2.01 34.66 1.02 35 0 C36.32 0 37.64 0 39 0 C39.495 0.99 39.495 0.99 40 2 C42.34754398 3.33903214 42.34754398 3.33903214 45 4 C45.99 3.34 46.98 2.68 48 2 C50.5625 2.375 50.5625 2.375 53 3 C55.08242374 3.07682213 55.08242374 3.07682213 57.375 2.4375 C60 2 60 2 61.875 2.5 C65.00983305 3.23760778 67.8425195 2.46777489 71 2 C71.99 2.495 71.99 2.495 73 3 C73.33 2.01 73.66 1.02 74 0 C75.32 0 76.64 0 78 0 C78 0.99 78 1.98 78 3 C78.66 3 79.32 3 80 3 C80.33 2.01 80.66 1.02 81 0 C81.99 0 82.98 0 84 0 C84 0.99 84 1.98 84 3 C85.093125 2.814375 86.18625 2.62875 87.3125 2.4375 C91 2 91 2 94 3 C94.33 2.01 94.66 1.02 95 0 C96.32 0 97.64 0 99 0 C99.495 1.98 99.495 1.98 100 4 C100.99 3.34 101.98 2.68 103 2 C106.6875 2.375 106.6875 2.375 110 3 C110.33 2.01 110.66 1.02 111 0 C111.99 0 112.98 0 114 0 C114 0.99 114 1.98 114 3 C114.66 3 115.32 3 116 3 C116 3.99 116 4.98 116 6 C115.34 6 114.68 6 114 6 C114.33 6.763125 114.66 7.52625 115 8.3125 C116 11 116 11 116 14 C114.35 14 112.7 14 111 14 C110.01 12.02 110.01 12.02 109 10 C108.34 11.32 107.68 12.64 107 14 C105.865625 13.814375 104.73125 13.62875 103.5625 13.4375 C102.386875 13.293125 101.21125 13.14875 100 13 C99.67 13.33 99.34 13.66 99 14 C97.66956375 14.0983721 96.33406656 14.13078592 95 14.1328125 C94.195625 14.13410156 93.39125 14.13539062 92.5625 14.13671875 C91.716875 14.13285156 90.87125 14.12898438 90 14.125 C89.154375 14.12886719 88.30875 14.13273437 87.4375 14.13671875 C86.633125 14.13542969 85.82875 14.13414063 85 14.1328125 C84.2575 14.13168457 83.515 14.13055664 82.75 14.12939453 C81 14 81 14 80 13 C79.95907063 10.66702567 79.95758277 8.33294775 80 6 C79.34 6 78.68 6 78 6 C78 8.64 78 11.28 78 14 C76.9171875 13.7215625 76.9171875 13.7215625 75.8125 13.4375 C72.87173027 12.98004693 70.85896942 13.26483643 68 14 C68 14.99 68 15.98 68 17 C66.68 17 65.36 17 64 17 C63.505 15.02 63.505 15.02 63 13 C62.67 13.33 62.34 13.66 62 14 C56.47058824 14.23529412 56.47058824 14.23529412 54 13 C51.66117862 13.29235267 49.32716 13.62599214 47 14 C45 14 43 14 41 14 C41 11.36 41 8.72 41 6 C40.34 6 39.68 6 39 6 C39 8.64 39 11.28 39 14 C37.20841511 14.02696365 35.41671527 14.04637917 33.625 14.0625 C32.62726563 14.07410156 31.62953125 14.08570313 30.6015625 14.09765625 C28 14 28 14 26 13 C25.67 14.32 25.34 15.64 25 17 C22.36 17 19.72 17 17 17 C16.67 16.01 16.34 15.02 16 14 C14.1128125 14.12375 14.1128125 14.12375 12.1875 14.25 C9.98046875 14.265625 9.98046875 14.265625 8 14 C6 12 6 12 5 10 C4.67 11.32 4.34 12.64 4 14 C2.68 14 1.36 14 0 14 C0 9.38 0 4.76 0 0 Z M4 3 C4 3.66 4 4.32 4 5 C4.99 5 5.98 5 7 5 C7 4.34 7 3.68 7 3 C6.01 3 5.02 3 4 3 Z M11 5 C10.67 6.65 10.34 8.3 10 10 C10.99 10.495 10.99 10.495 12 11 C12 9.02 12 7.04 12 5 C11.67 5 11.34 5 11 5 Z M49 6 C49.33 7.32 49.66 8.64 50 10 C50 8.68 50 7.36 50 6 C49.67 6 49.34 6 49 6 Z M62 6 C62.66 6.66 63.32 7.32 64 8 C64 7.34 64 6.68 64 6 C63.34 6 62.68 6 62 6 Z M68 6 C68 7.32 68 8.64 68 10 C68.66 10 69.32 10 70 10 C69.67 8.68 69.34 7.36 69 6 C68.67 6 68.34 6 68 6 Z M84 6 C84.33 7.32 84.66 8.64 85 10 C85.66 8.68 86.32 7.36 87 6 C86.01 6 85.02 6 84 6 Z M16 7 C17 10 17 10 17 10 Z M25 8 C24.67 8.66 24.34 9.32 24 10 C25.32 9.67 26.64 9.34 28 9 C27.01 8.67 26.02 8.34 25 8 Z " fill="#565656" transform="translate(71,20)"/>
<path d="M0 0 C3.5 0.125 3.5 0.125 4.5 1.125 C4.6875 3.5625 4.6875 3.5625 4.5 6.125 C3.84 6.785 3.18 7.445 2.5 8.125 C-3.06818182 7.55681818 -3.06818182 7.55681818 -4.5 6.125 C-4.625 3.625 -4.625 3.625 -4.5 1.125 C-3.5 0.125 -3.5 0.125 0 0 Z " fill="#C1E7F9" transform="translate(9.5,12.875)"/>
<path d="M0 0 C0.33 0.99 0.66 1.98 1 3 C0.01 3.33 -0.98 3.66 -2 4 C-2 4.66 -2 5.32 -2 6 C-1.01 6 -0.02 6 1 6 C1 6.66 1 7.32 1 8 C-1.97 8 -4.94 8 -8 8 C-8 6.02 -8 4.04 -8 2 C-5.33333333 1.33333333 -2.66666667 0.66666667 0 0 Z " fill="#FDFEFE" transform="translate(13,42)"/>
<path d="M0 0 C2.97 0 5.94 0 9 0 C9 0.99 9 1.98 9 3 C8.01 3.495 8.01 3.495 7 4 C7.66 4.33 8.32 4.66 9 5 C9 5.66 9 6.32 9 7 C6.03 7 3.06 7 0 7 C0.33 6.01 0.66 5.02 1 4 C1.66 3.67 2.32 3.34 3 3 C2.01 2.67 1.02 2.34 0 2 C0 1.34 0 0.68 0 0 Z " fill="#FBFDFE" transform="translate(5,4)"/>
<path d="M0 0 C0.66 0.33 1.32 0.66 2 1 C1.67 2.32 1.34 3.64 1 5 C2.65 5 4.3 5 6 5 C5.01 4.67 4.02 4.34 3 4 C3 2.68 3 1.36 3 0 C4.65 0.33 6.3 0.66 8 1 C8.042721 2.66611905 8.04063832 4.33382885 8 6 C7 7 7 7 3.5 7.125 C0 7 0 7 -1 6 C-1.125 3.5 -1.125 3.5 -1 1 C-0.67 0.67 -0.34 0.34 0 0 Z " fill="#EEF8FD" transform="translate(6,26)"/>
<path d="M0 0 C0.66 0 1.32 0 2 0 C2 1.32 2 2.64 2 4 C2.66 4 3.32 4 4 4 C4.33 3.01 4.66 2.02 5 1 C5 1.99 5 2.98 5 4 C5.66 4 6.32 4 7 4 C7 2.68 7 1.36 7 0 C7.66 0 8.32 0 9 0 C9 1.98 9 3.96 9 6 C6.03 6 3.06 6 0 6 C0 4.02 0 2.04 0 0 Z " fill="#FFFFFF" transform="translate(5,35)"/>
<path d="M0 0 C0.33 0.99 0.66 1.98 1 3 C0.01 3.33 -0.98 3.66 -2 4 C-2.33 4.66 -2.66 5.32 -3 6 C-3.99 6 -4.98 6 -6 6 C-5.67 4.35 -5.34 2.7 -5 1 C-3.35 0.67 -1.7 0.34 0 0 Z " fill="#D7EFFB" transform="translate(13,42)"/>
<path d="M0 0 C2.97 0 5.94 0 9 0 C8.01 1.485 8.01 1.485 7 3 C2.25 2.25 2.25 2.25 0 0 Z " fill="#55BCEF" transform="translate(5,41)"/>
</svg>
